<svg width="28" height="25" viewBox="0 0 28 25" fill="none" xmlns="http://www.w3.org/2000/svg">
<path d="M15.8028 3.15699L15.8024 3.15747L14.725 4.29026L14.0004 5.0522L13.2758 4.29026L12.1985 3.15747L12.1973 3.15627C9.77494 0.600745 5.91941 0.251501 3.37505 2.46377C0.377793 5.07445 0.213973 9.78569 2.90252 12.6224L15.8028 3.15699ZM15.8028 3.15699C18.2312 0.600257 22.0815 0.25187 24.6255 2.46351L15.8028 3.15699ZM13.4842 23.7715L2.90293 12.6228L24.626 2.46401C27.6231 5.0748 27.7866 9.7857 25.093 12.6221L25.0928 12.6224L14.5112 23.7715C14.2219 24.0762 13.7735 24.0762 13.4842 23.7715Z" fill="#1B4607" stroke="#1B4607" stroke-width="2"/>
</svg>
