<svg width="28" height="25" viewBox="0 0 28 25" fill="none" xmlns="http://www.w3.org/2000/svg">
<path d="M15.8024 3.15747L15.8028 3.15699C18.2312 0.600257 22.0815 0.251871 24.6255 2.46351C27.6231 5.07419 27.7868 9.78551 25.093 12.6222L25.0928 12.6224L14.5112 23.7715C14.5111 23.7716 14.5111 23.7716 14.511 23.7717C14.2217 24.0761 13.7736 24.0761 13.4843 23.7717C13.4843 23.7716 13.4842 23.7716 13.4842 23.7715L2.90293 12.6228C0.213955 9.78617 0.377638 5.07459 3.37505 2.46377C5.91941 0.251501 9.77494 0.600745 12.1973 3.15627L12.1985 3.15747L13.2758 4.29026L14.0004 5.0522L14.725 4.29026L15.8024 3.15747Z" stroke="#1B4607" stroke-width="2"/>
</svg>
