<svg width="28" height="27" viewBox="0 0 28 27" fill="none" xmlns="http://www.w3.org/2000/svg">
<path d="M15.9483 23.8883H15.8783C15.6216 23.8739 15.3771 23.7809 15.183 23.6238C14.9889 23.4667 14.856 23.2543 14.805 23.0197L13.0083 14.7999C12.9626 14.5912 12.852 14.3997 12.6902 14.2491C12.5284 14.0985 12.3226 13.9955 12.0983 13.953L3.26668 12.2808C3.01406 12.2341 2.78514 12.1109 2.61562 11.9304C2.4461 11.75 2.34551 11.5224 2.32953 11.2831C2.31354 11.0439 2.38307 10.8064 2.52727 10.6078C2.67146 10.4092 2.88222 10.2606 3.12668 10.1851L21.7933 4.39762C22.0029 4.3171 22.2331 4.29513 22.4558 4.33441C22.6785 4.37369 22.8841 4.47251 23.0475 4.61879C23.2108 4.76507 23.3249 4.95247 23.3756 5.1581C23.4264 5.36372 23.4117 5.57865 23.3333 5.77663L17.115 23.15C17.0338 23.3747 16.8758 23.5685 16.6652 23.7019C16.4545 23.8352 16.2028 23.9007 15.9483 23.8883Z" fill="#1B4607"/>
</svg>
