<svg width="35" height="35" viewBox="0 0 26 35" fill="none" xmlns="http://www.w3.org/2000/svg">
<path d="M22.75 4.375H17.3333C17.3333 1.96191 15.3901 0 13 0C10.6099 0 8.66667 1.96191 8.66667 4.375H3.25C1.45573 4.375 0 5.84473 0 7.65625V31.7188C0 33.5303 1.45573 35 3.25 35H22.75C24.5443 35 26 33.5303 26 31.7188V7.65625C26 5.84473 24.5443 4.375 22.75 4.375ZM6.5 28.9844C5.59948 28.9844 4.875 28.2529 4.875 27.3438C4.875 26.4346 5.59948 25.7031 6.5 25.7031C7.40052 25.7031 8.125 26.4346 8.125 27.3438C8.125 28.2529 7.40052 28.9844 6.5 28.9844ZM6.5 22.4219C5.59948 22.4219 4.875 21.6904 4.875 20.7812C4.875 19.8721 5.59948 19.1406 6.5 19.1406C7.40052 19.1406 8.125 19.8721 8.125 20.7812C8.125 21.6904 7.40052 22.4219 6.5 22.4219ZM6.5 15.8594C5.59948 15.8594 4.875 15.1279 4.875 14.2188C4.875 13.3096 5.59948 12.5781 6.5 12.5781C7.40052 12.5781 8.125 13.3096 8.125 14.2188C8.125 15.1279 7.40052 15.8594 6.5 15.8594ZM13 2.73438C13.9005 2.73438 14.625 3.46582 14.625 4.375C14.625 5.28418 13.9005 6.01562 13 6.01562C12.0995 6.01562 11.375 5.28418 11.375 4.375C11.375 3.46582 12.0995 2.73438 13 2.73438ZM21.6667 27.8906C21.6667 28.1914 21.4229 28.4375 21.125 28.4375H11.375C11.0771 28.4375 10.8333 28.1914 10.8333 27.8906V26.7969C10.8333 26.4961 11.0771 26.25 11.375 26.25H21.125C21.4229 26.25 21.6667 26.4961 21.6667 26.7969V27.8906ZM21.6667 21.3281C21.6667 21.6289 21.4229 21.875 21.125 21.875H11.375C11.0771 21.875 10.8333 21.6289 10.8333 21.3281V20.2344C10.8333 19.9336 11.0771 19.6875 11.375 19.6875H21.125C21.4229 19.6875 21.6667 19.9336 21.6667 20.2344V21.3281ZM21.6667 14.7656C21.6667 15.0664 21.4229 15.3125 21.125 15.3125H11.375C11.0771 15.3125 10.8333 15.0664 10.8333 14.7656V13.6719C10.8333 13.3711 11.0771 13.125 11.375 13.125H21.125C21.4229 13.125 21.6667 13.3711 21.6667 13.6719V14.7656Z" fill="#1B4607"/>
</svg>
