<svg width="35" height="35" viewBox="0 0 34 27" fill="none" xmlns="http://www.w3.org/2000/svg">
<path d="M26.4531 11.9149L15.1969 0.741392C14.7187 0.26669 14.0701 3.5104e-06 13.3938 0H2.55C1.14166 0 0 1.13326 0 2.53125V13.2953C3.53641e-06 13.9666 0.268666 14.6104 0.746885 15.0851L12.0031 26.2586C12.9989 27.2471 14.6135 27.2472 15.6094 26.2586L26.4531 15.4946C27.449 14.5061 27.449 12.9034 26.4531 11.9149ZM5.95 8.4375C4.54166 8.4375 3.4 7.30424 3.4 5.90625C3.4 4.50826 4.54166 3.375 5.95 3.375C7.35835 3.375 8.5 4.50826 8.5 5.90625C8.5 7.30424 7.35835 8.4375 5.95 8.4375ZM33.2531 15.4946L22.4094 26.2586C21.4135 27.2471 19.799 27.2471 18.8031 26.2586L18.784 26.2396L28.0309 17.0607C28.934 16.1643 29.4313 14.9724 29.4313 13.7047C29.4313 12.437 28.9339 11.2451 28.0309 10.3487L17.6055 0H20.1938C20.8701 3.5104e-06 21.5187 0.26669 21.9969 0.741392L33.2531 11.9149C34.249 12.9034 34.249 14.5061 33.2531 15.4946Z" fill="black"/>
</svg>
