<svg width="20" height="20" viewBox="0 0 33 34" fill="none" xmlns="http://www.w3.org/2000/svg">
<path d="M29.6283 19.4064C29.9261 17.8134 29.9261 16.1866 29.6283 14.5936L32.5839 12.9103C32.9275 12.7182 33.0765 12.3228 32.9619 11.95C32.1944 9.50974 30.877 7.29542 29.1586 5.46522C28.8951 5.18278 28.4713 5.115 28.1276 5.30706L25.172 6.99039C23.9233 5.93972 22.4914 5.1263 20.9448 4.58401V1.21735C20.9448 0.833235 20.6699 0.49431 20.2919 0.415227C17.7372 -0.149649 15.1368 -0.127054 12.7081 0.415227C12.3301 0.49431 12.0552 0.833235 12.0552 1.21735V4.58401C10.5086 5.1263 9.07668 5.93972 7.828 6.99039L4.87242 5.30706C4.5402 5.115 4.10488 5.18278 3.8414 5.46522C2.12304 7.29542 0.805628 9.50974 0.0380935 11.95C-0.076464 12.3228 0.0839181 12.7182 0.416135 12.9103L3.37172 14.5936C3.07387 16.1866 3.07387 17.8134 3.37172 19.4064L0.416135 21.0897C0.0724624 21.2818 -0.076464 21.6772 0.0380935 22.05C0.805628 24.4903 2.12304 26.6933 3.8414 28.5348C4.10488 28.8172 4.52875 28.885 4.87242 28.6929L7.828 27.0096C9.07668 28.0603 10.5086 28.8737 12.0552 29.416V32.7826C12.0552 33.1668 12.3301 33.5057 12.7081 33.5848C15.2628 34.1496 17.8632 34.1271 20.2919 33.5848C20.6699 33.5057 20.9448 33.1668 20.9448 32.7826V29.416C22.4914 28.8737 23.9233 28.0603 25.172 27.0096L28.1276 28.6929C28.4598 28.885 28.8951 28.8172 29.1586 28.5348C30.877 26.7046 32.1944 24.4903 32.9619 22.05C33.0765 21.6772 32.9161 21.2818 32.5839 21.0897L29.6283 19.4064ZM16.5115 22.4793C13.4413 22.4793 10.9554 20.0164 10.9554 17C10.9554 13.9836 13.4528 11.5207 16.5115 11.5207C19.5701 11.5207 22.0675 13.9836 22.0675 17C22.0675 20.0164 19.5816 22.4793 16.5115 22.4793Z" fill="#545454"/>
</svg>
