<svg width="378" height="465" viewBox="0 0 378 465" fill="none" xmlns="http://www.w3.org/2000/svg">
<path d="M87.2308 377.812H290.769C290.769 393.888 277.775 406.875 261.692 406.875H247.154C231.071 406.875 218.077 419.862 218.077 435.938V454.102C218.077 460.096 213.17 465 207.173 465H170.827C164.83 465 159.923 460.096 159.923 454.102V435.938C159.923 419.862 146.929 406.875 130.846 406.875H116.308C100.225 406.875 87.2308 393.888 87.2308 377.812ZM378 188.906C378 256.295 342.562 315.328 289.406 348.75H88.5938C35.4375 315.328 0 256.295 0 188.906C0 84.5537 84.5957 0 189 0C293.404 0 378 84.5537 378 188.906ZM214.351 228.776C230.98 228.776 244.428 215.335 244.428 198.715C244.428 185.637 235.977 174.829 224.347 170.651C233.07 194.991 210.172 217.242 186.274 208.705C190.454 220.33 201.267 228.776 214.351 228.776ZM258.966 271.371C258.966 258.293 250.516 247.485 238.885 243.308C247.608 267.647 224.71 289.898 200.812 281.361C204.992 292.986 215.805 301.433 228.89 301.433C245.518 301.433 258.966 287.9 258.966 271.371ZM317.12 213.246C317.12 200.168 308.67 189.36 297.039 185.183C305.762 209.522 282.864 231.773 258.966 223.236C263.146 234.861 273.959 243.308 287.044 243.308C303.672 243.308 317.12 229.775 317.12 213.246Z" fill="white"/>
</svg>
